<mxfile host="app.diagrams.net" agent="Mozilla/5.0 (X11; Linux x86_64) AppleWebKit/537.36 (KHTML, like Gecko) Chrome/131.0.0.0 Safari/537.36" version="26.0.14" pages="2">
  <diagram id="C5RBs43oDa-KdzZeNtuy" name="01 – Circle Area ">
    <mxGraphModel dx="683" dy="445" grid="1" gridSize="10" guides="1" tooltips="1" connect="1" arrows="1" fold="1" page="1" pageScale="1" pageWidth="827" pageHeight="1169" math="0" shadow="0">
      <root>
        <mxCell id="WIyWlLk6GJQsqaUBKTNV-0" />
        <mxCell id="WIyWlLk6GJQsqaUBKTNV-1" parent="WIyWlLk6GJQsqaUBKTNV-0" />
        <mxCell id="WIyWlLk6GJQsqaUBKTNV-2" value="" style="rounded=0;html=1;jettySize=auto;orthogonalLoop=1;fontSize=11;endArrow=block;endFill=0;endSize=8;strokeWidth=1;shadow=0;labelBackgroundColor=none;edgeStyle=orthogonalEdgeStyle;entryX=0.5;entryY=0;entryDx=0;entryDy=0;" parent="WIyWlLk6GJQsqaUBKTNV-1" source="6i9mhLqe5ygLtg-Nuki5-2" target="m96oFd4sjMKujWYo12Lj-0" edge="1">
          <mxGeometry relative="1" as="geometry">
            <mxPoint x="400" y="270" as="targetPoint" />
          </mxGeometry>
        </mxCell>
        <mxCell id="WIyWlLk6GJQsqaUBKTNV-3" value="R,A=0" style="rounded=1;whiteSpace=wrap;html=1;fontSize=12;glass=0;strokeWidth=1;shadow=0;" parent="WIyWlLk6GJQsqaUBKTNV-1" vertex="1">
          <mxGeometry x="340" y="90" width="120" height="40" as="geometry" />
        </mxCell>
        <mxCell id="6i9mhLqe5ygLtg-Nuki5-1" style="edgeStyle=orthogonalEdgeStyle;rounded=0;orthogonalLoop=1;jettySize=auto;html=1;exitX=0.5;exitY=1;exitDx=0;exitDy=0;" edge="1" parent="WIyWlLk6GJQsqaUBKTNV-1" source="6i9mhLqe5ygLtg-Nuki5-0" target="WIyWlLk6GJQsqaUBKTNV-3">
          <mxGeometry relative="1" as="geometry" />
        </mxCell>
        <mxCell id="6i9mhLqe5ygLtg-Nuki5-0" value="start" style="ellipse;whiteSpace=wrap;html=1;" vertex="1" parent="WIyWlLk6GJQsqaUBKTNV-1">
          <mxGeometry x="355" y="20" width="90" height="40" as="geometry" />
        </mxCell>
        <mxCell id="6i9mhLqe5ygLtg-Nuki5-3" value="" style="rounded=0;html=1;jettySize=auto;orthogonalLoop=1;fontSize=11;endArrow=block;endFill=0;endSize=8;strokeWidth=1;shadow=0;labelBackgroundColor=none;edgeStyle=orthogonalEdgeStyle;" edge="1" parent="WIyWlLk6GJQsqaUBKTNV-1" source="WIyWlLk6GJQsqaUBKTNV-3" target="6i9mhLqe5ygLtg-Nuki5-2">
          <mxGeometry relative="1" as="geometry">
            <mxPoint x="400" y="160" as="sourcePoint" />
            <mxPoint x="400" y="270" as="targetPoint" />
          </mxGeometry>
        </mxCell>
        <mxCell id="m96oFd4sjMKujWYo12Lj-2" style="edgeStyle=orthogonalEdgeStyle;rounded=0;orthogonalLoop=1;jettySize=auto;html=1;exitX=0.5;exitY=1;exitDx=0;exitDy=0;entryX=0.5;entryY=0;entryDx=0;entryDy=0;" edge="1" parent="WIyWlLk6GJQsqaUBKTNV-1" source="m96oFd4sjMKujWYo12Lj-0" target="m96oFd4sjMKujWYo12Lj-1">
          <mxGeometry relative="1" as="geometry" />
        </mxCell>
        <mxCell id="m96oFd4sjMKujWYo12Lj-0" value="A=3.14+R*R" style="rounded=1;whiteSpace=wrap;html=1;fontSize=12;glass=0;strokeWidth=1;shadow=0;" vertex="1" parent="WIyWlLk6GJQsqaUBKTNV-1">
          <mxGeometry x="340" y="270" width="120" height="50" as="geometry" />
        </mxCell>
        <mxCell id="m96oFd4sjMKujWYo12Lj-4" style="edgeStyle=orthogonalEdgeStyle;rounded=0;orthogonalLoop=1;jettySize=auto;html=1;entryX=0.5;entryY=0;entryDx=0;entryDy=0;" edge="1" parent="WIyWlLk6GJQsqaUBKTNV-1" source="m96oFd4sjMKujWYo12Lj-1" target="m96oFd4sjMKujWYo12Lj-3">
          <mxGeometry relative="1" as="geometry" />
        </mxCell>
        <mxCell id="m96oFd4sjMKujWYo12Lj-3" value="end" style="ellipse;whiteSpace=wrap;html=1;" vertex="1" parent="WIyWlLk6GJQsqaUBKTNV-1">
          <mxGeometry x="355" y="460" width="90" height="40" as="geometry" />
        </mxCell>
        <mxCell id="m96oFd4sjMKujWYo12Lj-6" value="" style="group" vertex="1" connectable="0" parent="WIyWlLk6GJQsqaUBKTNV-1">
          <mxGeometry x="335" y="170" width="130" height="40" as="geometry" />
        </mxCell>
        <mxCell id="6i9mhLqe5ygLtg-Nuki5-2" value="R" style="shape=parallelogram;perimeter=parallelogramPerimeter;whiteSpace=wrap;html=1;fixedSize=1;" vertex="1" parent="m96oFd4sjMKujWYo12Lj-6">
          <mxGeometry width="130" height="40" as="geometry" />
        </mxCell>
        <mxCell id="m96oFd4sjMKujWYo12Lj-5" value="&lt;font style=&quot;font-size: 7px;&quot;&gt;&lt;b&gt;Input&lt;/b&gt;&lt;/font&gt;" style="rounded=0;whiteSpace=wrap;html=1;fillColor=#f8cecc;strokeColor=#b85450;" vertex="1" parent="m96oFd4sjMKujWYo12Lj-6">
          <mxGeometry x="25" width="30" height="10" as="geometry" />
        </mxCell>
        <mxCell id="m96oFd4sjMKujWYo12Lj-8" value="" style="group" vertex="1" connectable="0" parent="WIyWlLk6GJQsqaUBKTNV-1">
          <mxGeometry x="335" y="370" width="130" height="40" as="geometry" />
        </mxCell>
        <mxCell id="m96oFd4sjMKujWYo12Lj-1" value="A" style="shape=parallelogram;perimeter=parallelogramPerimeter;whiteSpace=wrap;html=1;fixedSize=1;" vertex="1" parent="m96oFd4sjMKujWYo12Lj-8">
          <mxGeometry width="130" height="40" as="geometry" />
        </mxCell>
        <mxCell id="m96oFd4sjMKujWYo12Lj-7" value="&lt;font style=&quot;font-size: 7px;&quot;&gt;&lt;b&gt;Print&lt;/b&gt;&lt;/font&gt;" style="rounded=0;whiteSpace=wrap;html=1;fillColor=#f8cecc;strokeColor=#b85450;" vertex="1" parent="m96oFd4sjMKujWYo12Lj-8">
          <mxGeometry x="25" width="30" height="10" as="geometry" />
        </mxCell>
        <mxCell id="m96oFd4sjMKujWYo12Lj-11" value="" style="group;fillColor=none;strokeColor=#d6b656;dashed=1;dashPattern=8 8;" vertex="1" connectable="0" parent="WIyWlLk6GJQsqaUBKTNV-1">
          <mxGeometry x="60" y="160" width="500" height="60" as="geometry" />
        </mxCell>
        <mxCell id="m96oFd4sjMKujWYo12Lj-10" value="&lt;b&gt;&lt;font style=&quot;font-size: 24px;&quot;&gt;INPUT&lt;/font&gt;&lt;/b&gt;" style="text;html=1;align=center;verticalAlign=middle;resizable=0;points=[];autosize=1;strokeColor=none;fillColor=none;" vertex="1" parent="m96oFd4sjMKujWYo12Lj-11">
          <mxGeometry x="30" y="16.666666666666668" width="100" height="40" as="geometry" />
        </mxCell>
        <mxCell id="m96oFd4sjMKujWYo12Lj-12" value="" style="rounded=0;whiteSpace=wrap;html=1;fillColor=none;strokeColor=#b85450;dashed=1;dashPattern=8 8;" vertex="1" parent="WIyWlLk6GJQsqaUBKTNV-1">
          <mxGeometry x="60" y="265" width="500" height="60" as="geometry" />
        </mxCell>
        <mxCell id="m96oFd4sjMKujWYo12Lj-13" value="&lt;b&gt;&lt;font style=&quot;font-size: 24px;&quot;&gt;PROCESSES&lt;/font&gt;&lt;/b&gt;" style="text;html=1;align=center;verticalAlign=middle;resizable=0;points=[];autosize=1;strokeColor=none;fillColor=none;" vertex="1" parent="WIyWlLk6GJQsqaUBKTNV-1">
          <mxGeometry x="60" y="285" width="160" height="40" as="geometry" />
        </mxCell>
        <mxCell id="m96oFd4sjMKujWYo12Lj-14" value="" style="rounded=0;whiteSpace=wrap;html=1;fillColor=none;strokeColor=#6c8ebf;dashed=1;dashPattern=8 8;" vertex="1" parent="WIyWlLk6GJQsqaUBKTNV-1">
          <mxGeometry x="60" y="360" width="500" height="60" as="geometry" />
        </mxCell>
        <mxCell id="m96oFd4sjMKujWYo12Lj-15" value="&lt;b&gt;&lt;font style=&quot;font-size: 24px;&quot;&gt;OUTPUT&lt;/font&gt;&lt;/b&gt;" style="text;html=1;align=center;verticalAlign=middle;resizable=0;points=[];autosize=1;strokeColor=none;fillColor=none;" vertex="1" parent="WIyWlLk6GJQsqaUBKTNV-1">
          <mxGeometry x="80" y="370" width="120" height="40" as="geometry" />
        </mxCell>
        <mxCell id="m96oFd4sjMKujWYo12Lj-16" style="edgeStyle=orthogonalEdgeStyle;rounded=0;orthogonalLoop=1;jettySize=auto;html=1;entryX=0.16;entryY=0.009;entryDx=0;entryDy=0;entryPerimeter=0;fillColor=#ffe6cc;strokeColor=#d79b00;" edge="1" parent="WIyWlLk6GJQsqaUBKTNV-1" source="m96oFd4sjMKujWYo12Lj-10" target="m96oFd4sjMKujWYo12Lj-12">
          <mxGeometry relative="1" as="geometry" />
        </mxCell>
        <mxCell id="m96oFd4sjMKujWYo12Lj-17" style="edgeStyle=orthogonalEdgeStyle;rounded=0;orthogonalLoop=1;jettySize=auto;html=1;entryX=0.161;entryY=0.029;entryDx=0;entryDy=0;entryPerimeter=0;fillColor=#ffe6cc;strokeColor=#d79b00;" edge="1" parent="WIyWlLk6GJQsqaUBKTNV-1" source="m96oFd4sjMKujWYo12Lj-13" target="m96oFd4sjMKujWYo12Lj-14">
          <mxGeometry relative="1" as="geometry" />
        </mxCell>
      </root>
    </mxGraphModel>
  </diagram>
  <diagram name="Copy of 01 – Circle Area " id="V2f5SvhzDrt1Djuk4o3A">
    <mxGraphModel grid="1" page="1" gridSize="10" guides="1" tooltips="1" connect="1" arrows="1" fold="1" pageScale="1" pageWidth="827" pageHeight="1169" math="0" shadow="0">
      <root>
        <mxCell id="XAE3gg-LZW54IfptFSL0-0" />
        <mxCell id="XAE3gg-LZW54IfptFSL0-1" parent="XAE3gg-LZW54IfptFSL0-0" />
        <mxCell id="XAE3gg-LZW54IfptFSL0-2" value="" style="rounded=0;html=1;jettySize=auto;orthogonalLoop=1;fontSize=11;endArrow=block;endFill=0;endSize=8;strokeWidth=1;shadow=0;labelBackgroundColor=none;edgeStyle=orthogonalEdgeStyle;" edge="1" parent="XAE3gg-LZW54IfptFSL0-1" source="XAE3gg-LZW54IfptFSL0-16" target="XAE3gg-LZW54IfptFSL0-6">
          <mxGeometry relative="1" as="geometry" />
        </mxCell>
        <mxCell id="XAE3gg-LZW54IfptFSL0-3" value="R,A=0" style="rounded=1;whiteSpace=wrap;html=1;fontSize=12;glass=0;strokeWidth=1;shadow=0;" vertex="1" parent="XAE3gg-LZW54IfptFSL0-1">
          <mxGeometry x="340" y="90" width="120" height="40" as="geometry" />
        </mxCell>
        <mxCell id="XAE3gg-LZW54IfptFSL0-4" value="Yes" style="rounded=0;html=1;jettySize=auto;orthogonalLoop=1;fontSize=11;endArrow=block;endFill=0;endSize=8;strokeWidth=1;shadow=0;labelBackgroundColor=none;edgeStyle=orthogonalEdgeStyle;" edge="1" parent="XAE3gg-LZW54IfptFSL0-1" source="XAE3gg-LZW54IfptFSL0-6" target="XAE3gg-LZW54IfptFSL0-10">
          <mxGeometry y="20" relative="1" as="geometry">
            <mxPoint as="offset" />
          </mxGeometry>
        </mxCell>
        <mxCell id="XAE3gg-LZW54IfptFSL0-5" value="No" style="edgeStyle=orthogonalEdgeStyle;rounded=0;html=1;jettySize=auto;orthogonalLoop=1;fontSize=11;endArrow=block;endFill=0;endSize=8;strokeWidth=1;shadow=0;labelBackgroundColor=none;" edge="1" parent="XAE3gg-LZW54IfptFSL0-1" source="XAE3gg-LZW54IfptFSL0-6" target="XAE3gg-LZW54IfptFSL0-7">
          <mxGeometry y="10" relative="1" as="geometry">
            <mxPoint as="offset" />
          </mxGeometry>
        </mxCell>
        <mxCell id="XAE3gg-LZW54IfptFSL0-6" value="Lamp&lt;br&gt;plugged in?" style="rhombus;whiteSpace=wrap;html=1;shadow=0;fontFamily=Helvetica;fontSize=12;align=center;strokeWidth=1;spacing=6;spacingTop=-4;" vertex="1" parent="XAE3gg-LZW54IfptFSL0-1">
          <mxGeometry x="350" y="270" width="100" height="80" as="geometry" />
        </mxCell>
        <mxCell id="XAE3gg-LZW54IfptFSL0-7" value="Plug in lamp" style="rounded=1;whiteSpace=wrap;html=1;fontSize=12;glass=0;strokeWidth=1;shadow=0;" vertex="1" parent="XAE3gg-LZW54IfptFSL0-1">
          <mxGeometry x="500" y="290" width="120" height="40" as="geometry" />
        </mxCell>
        <mxCell id="XAE3gg-LZW54IfptFSL0-8" value="No" style="rounded=0;html=1;jettySize=auto;orthogonalLoop=1;fontSize=11;endArrow=block;endFill=0;endSize=8;strokeWidth=1;shadow=0;labelBackgroundColor=none;edgeStyle=orthogonalEdgeStyle;" edge="1" parent="XAE3gg-LZW54IfptFSL0-1" source="XAE3gg-LZW54IfptFSL0-10" target="XAE3gg-LZW54IfptFSL0-11">
          <mxGeometry x="0.3333" y="20" relative="1" as="geometry">
            <mxPoint as="offset" />
          </mxGeometry>
        </mxCell>
        <mxCell id="XAE3gg-LZW54IfptFSL0-9" value="Yes" style="edgeStyle=orthogonalEdgeStyle;rounded=0;html=1;jettySize=auto;orthogonalLoop=1;fontSize=11;endArrow=block;endFill=0;endSize=8;strokeWidth=1;shadow=0;labelBackgroundColor=none;" edge="1" parent="XAE3gg-LZW54IfptFSL0-1" source="XAE3gg-LZW54IfptFSL0-10" target="XAE3gg-LZW54IfptFSL0-12">
          <mxGeometry y="10" relative="1" as="geometry">
            <mxPoint as="offset" />
          </mxGeometry>
        </mxCell>
        <mxCell id="XAE3gg-LZW54IfptFSL0-10" value="Bulb&lt;br&gt;burned out?" style="rhombus;whiteSpace=wrap;html=1;shadow=0;fontFamily=Helvetica;fontSize=12;align=center;strokeWidth=1;spacing=6;spacingTop=-4;" vertex="1" parent="XAE3gg-LZW54IfptFSL0-1">
          <mxGeometry x="350" y="390" width="100" height="80" as="geometry" />
        </mxCell>
        <mxCell id="XAE3gg-LZW54IfptFSL0-11" value="Repair Lamp" style="rounded=1;whiteSpace=wrap;html=1;fontSize=12;glass=0;strokeWidth=1;shadow=0;" vertex="1" parent="XAE3gg-LZW54IfptFSL0-1">
          <mxGeometry x="340" y="530" width="120" height="40" as="geometry" />
        </mxCell>
        <mxCell id="XAE3gg-LZW54IfptFSL0-12" value="Replace Bulb" style="rounded=1;whiteSpace=wrap;html=1;fontSize=12;glass=0;strokeWidth=1;shadow=0;" vertex="1" parent="XAE3gg-LZW54IfptFSL0-1">
          <mxGeometry x="500" y="410" width="120" height="40" as="geometry" />
        </mxCell>
        <mxCell id="XAE3gg-LZW54IfptFSL0-13" style="edgeStyle=orthogonalEdgeStyle;rounded=0;orthogonalLoop=1;jettySize=auto;html=1;exitX=0.5;exitY=1;exitDx=0;exitDy=0;" edge="1" parent="XAE3gg-LZW54IfptFSL0-1" source="XAE3gg-LZW54IfptFSL0-14" target="XAE3gg-LZW54IfptFSL0-3">
          <mxGeometry relative="1" as="geometry" />
        </mxCell>
        <mxCell id="XAE3gg-LZW54IfptFSL0-14" value="start" style="ellipse;whiteSpace=wrap;html=1;" vertex="1" parent="XAE3gg-LZW54IfptFSL0-1">
          <mxGeometry x="355" y="20" width="90" height="40" as="geometry" />
        </mxCell>
        <mxCell id="XAE3gg-LZW54IfptFSL0-15" value="" style="rounded=0;html=1;jettySize=auto;orthogonalLoop=1;fontSize=11;endArrow=block;endFill=0;endSize=8;strokeWidth=1;shadow=0;labelBackgroundColor=none;edgeStyle=orthogonalEdgeStyle;" edge="1" parent="XAE3gg-LZW54IfptFSL0-1" source="XAE3gg-LZW54IfptFSL0-3" target="XAE3gg-LZW54IfptFSL0-16">
          <mxGeometry relative="1" as="geometry">
            <mxPoint x="400" y="160" as="sourcePoint" />
            <mxPoint x="400" y="270" as="targetPoint" />
          </mxGeometry>
        </mxCell>
        <mxCell id="XAE3gg-LZW54IfptFSL0-16" value="R" style="shape=parallelogram;perimeter=parallelogramPerimeter;whiteSpace=wrap;html=1;fixedSize=1;" vertex="1" parent="XAE3gg-LZW54IfptFSL0-1">
          <mxGeometry x="335" y="180" width="130" height="40" as="geometry" />
        </mxCell>
      </root>
    </mxGraphModel>
  </diagram>
</mxfile>
